# xmcd
#
# Track frame offsets:
#  150
#  13860
#  30662
#  41767
#  53717
#  64665
#  74235
#  84497
#  95992
#  107075
#  119400
#  129020
#  138837
#  148655
#  158092
#  169382
#
# Disc length: 2408 seconds
#
# Revision: 0
# Processed by: cddbd v1.5.2PL0 Copyright (c) Steve Scherf et al.
# Submitted via: AltoMP3_Maker 3.0
#
DISCID=e7096610
DTITLE=Dave Dudley, Bobby Bare, Ferlin Husky, Freddy QuinnGeorge Kent,Norville Dollar - the greatest country and western songs
DYEAR=1900
DGENRE=
TTITLE0=oh lonesome me
TTITLE1=trains come and go
TTITLE2=get me back to Tennessee
TTITLE3=the most beautiful girl
TTITLE4=one more plane
TTITLE5=that´s allright, mama
TTITLE6=take some and give some
TTITLE7=how I got to Memphis
TTITLE8=the wings of a dove
TTITLE9=I could sing all night
TTITLE10=running with the wind
TTITLE11=let´s just pretend
TTITLE12=what makes me feel so blue
TTITLE13=take my heart along
TTITLE14=you´d better take it
TTITLE15=a new girl in town
EXTD=
EXTT0=
EXTT1=
EXTT2=
EXTT3=
EXTT4=
EXTT5=
EXTT6=
EXTT7=
EXTT8=
EXTT9=
EXTT10=
EXTT11=
EXTT12=
EXTT13=
EXTT14=
EXTT15=
PLAYORDER=
